<?xml version="1.0" ?>
    <!DOCTYPE svg  PUBLIC '-//W3C//DTD SVG 1.1//EN'  'http://www.w3.org/Graphics/SVG/1.1/DTD/svg11.dtd'>
        <svg height="15.99px" version="1.1" viewBox="0 0 96 96" width="15.99px" xmlns="http://www.w3.org/2000/svg" xmlns:xlink="http://www.w3.org/1999/xlink">
            <path d="M76.78 93.916c-0.42 0-0.828-0.128-1.18-0.384l-27.608-20.156-27.6 20.008c-0.7 0.508-1.652 0.508-2.352-0.008-0.7-0.508-0.992-1.416-0.72-2.24l10.536-32.060-27.584-19.676c-0.708-0.5-1.008-1.408-0.744-2.236 0.26-0.828 1.036-1.392 1.904-1.392h34.124l10.544-32.452c0.536-1.648 3.268-1.648 3.804 0l10.54 32.452h34.124c0.868 0 1.64 0.564 1.904 1.392s-0.036 1.736-0.748 2.244l-27.58 19.648 10.54 32.236c0.264 0.824-0.028 1.736-0.728 2.244-0.356 0.252-0.768 0.38-1.176 0.38z" fill="#fff"/>
        </svg>